# xmcd CD database file
#
# Track frame offsets:
#	150
#	51787
#	91699
#	150535
#
# Disc length: 2493 seconds
#
# Revision: 0
# Processed by: cddbd v1.5.1PL0 Copyright (c) Steve Scherf et al.
# Submitted via: CDex 1.51
#
DISCID=2109bb04
DTITLE=John Scofield Trio - Live in Toronto [CD2]
DYEAR=2004
DGENRE=Jazz
TTITLE0=New Tune (Toronto Tent)
TTITLE1=Alfie
TTITLE2=Over Big Top
TTITLE3=Wee
EXTD=YEAR: 2004
EXTT0=
EXTT1=
EXTT2=
EXTT3=
PLAYORDER=
